<?xml version="1.0" standalone="no"?>
<!DOCTYPE svg PUBLIC "-//W3C//DTD SVG 20010904//EN"
 "http://www.w3.org/TR/2001/REC-SVG-20010904/DTD/svg10.dtd">
<svg version="1.0" xmlns="http://www.w3.org/2000/svg"
 width="1872.000000pt" height="1872.000000pt" viewBox="0 0 1872.000000 1872.000000"
 preserveAspectRatio="xMidYMid meet">
<metadata>
Created by potrace 1.11, written by Peter Selinger 2001-2013
</metadata>
<g transform="translate(0.000000,1872.000000) scale(0.100000,-0.100000)"
fill="#000000" stroke="none">
<path d="M8975 18579 c-209 -77 -389 -145 -400 -150 -11 -5 -56 -22 -100 -37
-118 -43 -888 -328 -915 -339 -8 -3 -17 -7 -20 -7 -3 -1 -18 -7 -35 -13 -16
-7 -230 -86 -475 -177 -712 -263 -797 -294 -950 -351 -80 -30 -262 -97 -405
-150 -243 -90 -371 -137 -455 -170 -19 -7 -84 -31 -145 -53 -195 -71 -578
-213 -655 -242 -41 -16 -257 -96 -480 -179 -900 -333 -1140 -421 -1162 -431
-13 -5 -117 -44 -233 -86 -115 -42 -282 -104 -370 -136 -88 -33 -218 -81 -290
-108 -71 -26 -218 -80 -325 -120 -107 -40 -229 -85 -270 -100 -264 -97 -340
-126 -340 -130 0 -4 17 -12 37 -19 21 -7 92 -33 158 -59 66 -25 136 -51 155
-58 89 -32 577 -216 595 -224 11 -5 130 -50 265 -101 266 -99 401 -150 1235
-464 786 -296 1028 -388 1210 -457 88 -33 194 -73 235 -88 152 -56 536 -201
555 -209 11 -5 117 -46 235 -90 302 -113 962 -360 980 -368 8 -3 42 -16 75
-28 219 -82 384 -144 405 -153 14 -6 52 -20 85 -32 33 -12 69 -26 80 -31 11
-4 155 -58 320 -120 165 -61 314 -117 330 -124 17 -7 55 -22 85 -33 30 -11
278 -104 550 -207 272 -102 568 -214 658 -247 l163 -61 127 48 c153 57 305
115 427 162 50 20 155 59 235 89 80 30 154 58 165 63 11 5 63 25 115 45 320
120 1247 472 1310 497 41 16 78 29 83 29 4 0 26 9 50 19 39 19 727 280 1577
600 206 78 389 148 405 156 17 7 66 27 110 43 44 16 131 48 193 72 l114 43 59
-18 59 -18 0 -2404 c0 -1321 2 -2403 5 -2403 3 0 18 13 33 30 16 16 135 139
264 272 130 134 296 306 370 382 l135 140 0 2151 0 2152 -46 15 -46 15 40 17
c22 10 65 27 95 37 30 10 64 23 75 28 34 16 341 131 348 131 4 0 26 8 50 19
23 10 58 24 77 31 19 7 49 18 65 25 17 7 62 24 100 38 73 26 325 122 360 136
31 13 163 63 345 131 91 34 179 68 195 75 17 7 64 25 105 40 41 14 84 31 95
35 24 11 117 46 445 170 278 105 282 106 260 114 -59 21 -304 110 -345 126
-77 30 -707 261 -735 270 -14 5 -99 36 -190 70 -91 34 -246 90 -345 126 -99
36 -189 69 -200 74 -19 8 -236 88 -585 215 -85 31 -164 60 -175 65 -11 4 -72
27 -135 50 -140 50 -218 79 -245 90 -11 5 -94 35 -185 68 -233 85 -735 269
-1000 367 -334 123 -634 233 -730 267 -47 17 -94 34 -105 39 -11 5 -101 38
-200 75 -513 187 -1725 632 -1790 657 -22 9 -89 34 -150 55 -60 22 -171 63
-245 90 -74 27 -211 78 -305 112 -93 34 -255 94 -360 132 -104 39 -231 85
-282 104 -51 19 -93 34 -95 34 -2 -1 -174 -64 -383 -141z"/>
<path d="M14025 13575 c-49 -19 -277 -102 -505 -185 -228 -83 -424 -155 -435
-159 -11 -5 -42 -17 -70 -26 -27 -10 -77 -28 -110 -40 -33 -13 -143 -54 -245
-91 -102 -37 -219 -79 -260 -94 -41 -15 -109 -40 -150 -54 -41 -15 -84 -31
-95 -36 -11 -4 -33 -13 -50 -18 -16 -6 -73 -26 -125 -45 -234 -86 -421 -154
-770 -281 -465 -170 -510 -186 -535 -197 -11 -5 -69 -27 -130 -48 -221 -79
-531 -191 -550 -200 -11 -5 -147 -55 -301 -111 l-282 -102 -253 92 c-140 50
-348 125 -464 167 -115 41 -217 77 -225 81 -8 3 -17 6 -20 7 -3 1 -12 4 -20 8
-23 9 -125 45 -535 192 -636 228 -659 237 -680 245 -11 5 -236 86 -500 180
-264 94 -489 175 -500 180 -11 5 -31 12 -45 15 -14 4 -38 13 -55 20 -16 8 -50
20 -75 28 -54 18 -394 140 -465 167 -27 10 -144 53 -260 94 -115 41 -298 106
-405 145 -107 39 -197 71 -200 71 -3 0 -5 -496 -4 -1103 l0 -1102 85 -56 c176
-118 484 -270 754 -371 149 -57 489 -169 605 -200 198 -52 414 -107 445 -112
17 -3 62 -12 100 -22 39 -9 81 -18 95 -20 14 -3 32 -7 40 -9 8 -3 33 -7 55
-11 22 -3 101 -17 175 -30 125 -23 340 -57 435 -69 22 -3 58 -8 80 -11 22 -3
51 -7 65 -9 25 -3 84 -10 198 -21 31 -3 74 -7 94 -10 21 -3 61 -7 90 -9 29 -2
87 -6 128 -10 292 -24 368 -28 725 -41 371 -13 966 -7 1240 11 39 3 108 7 155
10 47 3 117 8 155 11 39 3 93 7 120 9 54 3 168 14 225 20 19 2 82 9 140 15
102 10 159 17 210 25 14 2 45 7 70 10 75 10 112 16 175 25 33 5 83 12 110 15
28 4 57 8 65 10 8 3 33 7 55 11 22 3 59 10 83 15 23 5 59 12 80 15 20 3 69 12
107 19 39 8 81 16 95 19 54 9 361 80 465 107 215 55 628 180 690 209 11 5 49
19 85 31 36 12 69 26 75 31 5 4 15 8 23 8 7 0 32 9 56 19 23 11 67 29 96 41
165 65 453 211 603 307 l67 43 1 52 c2 222 0 2151 -3 2153 -2 2 -43 -12 -93
-30z"/>
<path d="M5988 10543 c-9 -51 -166 -603 -227 -793 -125 -394 -303 -891 -386
-1075 -8 -16 -34 -79 -60 -140 -89 -212 -162 -364 -412 -865 -139 -277 -271
-549 -292 -604 l-39 -99 41 -35 c23 -19 62 -50 86 -71 349 -287 733 -664 1051
-1031 30 -35 59 -68 65 -74 6 -6 39 -47 75 -91 35 -44 67 -82 70 -85 5 -4 34
-40 153 -190 111 -140 374 -497 395 -537 7 -12 18 -27 25 -35 22 -22 318 -473
422 -643 54 -88 108 -176 121 -195 37 -59 165 -281 289 -505 135 -243 400
-760 495 -965 24 -52 61 -133 83 -180 21 -47 55 -119 74 -160 20 -41 71 -158
115 -260 43 -102 88 -205 100 -230 30 -66 246 -605 273 -680 40 -114 146 -404
155 -425 7 -15 164 -491 186 -562 2 -9 31 -13 97 -13 l93 0 0 2959 0 2959 -55
33 c-161 95 -303 249 -406 442 -33 61 -83 212 -92 274 -20 142 2 362 43 442 8
14 14 30 14 34 0 22 76 157 125 222 50 66 132 147 203 202 75 57 263 142 352
158 202 38 399 18 560 -57 126 -58 234 -151 307 -265 56 -89 114 -229 128
-312 3 -19 7 -37 9 -40 8 -14 19 -134 20 -224 3 -146 -15 -288 -46 -382 -83
-252 -251 -409 -538 -502 l-85 -28 0 -2958 0 -2957 137 0 c104 0 138 3 138 13
0 22 163 511 230 692 218 586 403 1044 551 1363 16 35 29 65 29 67 0 2 22 50
49 107 27 57 60 128 74 158 14 30 41 91 61 135 20 44 41 88 46 98 6 9 14 25
20 35 5 9 38 76 73 147 78 157 213 419 273 528 24 44 44 81 44 82 0 2 23 42
50 90 28 48 50 88 50 90 0 2 46 81 102 177 55 95 111 189 122 209 141 241 458
725 630 962 130 179 384 516 397 527 3 3 55 66 116 140 61 74 123 149 138 165
15 17 52 59 83 95 301 343 664 698 982 960 69 56 131 108 138 114 23 21 -43
176 -300 705 -59 123 -108 225 -108 227 0 2 -22 50 -49 108 -310 656 -590
1436 -821 2281 -28 105 -58 213 -66 242 l-15 52 -117 -40 c-64 -22 -126 -44
-137 -49 -61 -27 -604 -168 -715 -186 -19 -3 -66 -12 -105 -19 -65 -13 -84
-17 -170 -31 -16 -3 -37 -7 -45 -9 -8 -2 -37 -7 -65 -11 -27 -3 -59 -8 -70
-10 -27 -5 -73 -11 -210 -28 -116 -15 -172 -21 -272 -31 -27 -2 -70 -7 -98
-10 -67 -7 -152 -13 -255 -20 -47 -3 -110 -8 -140 -10 -55 -5 -259 -14 -445
-21 -279 -10 -1065 -4 -1330 11 -49 2 -137 7 -195 10 -58 3 -121 7 -140 10
-19 2 -80 7 -135 10 -55 4 -111 8 -125 10 -14 2 -56 6 -95 10 -38 3 -83 8
-100 10 -16 2 -57 7 -90 10 -77 8 -338 43 -368 50 -12 2 -38 7 -57 10 -19 2
-46 7 -60 10 -13 2 -42 7 -65 11 -22 3 -62 10 -90 15 -27 6 -61 12 -75 15 -14
2 -56 11 -95 20 -38 8 -79 16 -90 18 -176 34 -572 155 -786 241 -13 5 -18 -1
-21 -22z"/>
</g>
</svg>
